# xmcd CD database file
#
# Track frame offsets:
#	183
#	13560
#	27410
#	38100
#	50093
#	59948
#	71038
#	86620
#	96410
#	107735
#	124443
#	134765
#	145405
#	154310
#	164240
#	176803
#	186883
#	197280
#	205813
#
# Disc length: 2917 seconds
#
# Revision: 2
# Processed by: cddbd v1.4b41PL1 Copyright (c) Steve Scherf et al.
# Submitted via: Feurio! 1.60 - http://www.feurio.com
#
DISCID=200b6313,300b6313
DTITLE=The Bee Gees - Look Behind Collection CD 1
DYEAR=1900
DGENRE=
TTITLE0=Wine and Woman
TTITLE1=I don´t think it´s funny
TTITLE2=Turn around, look at me
TTITLE3=I am the world
TTITLE4=The Battle of the blues
TTITLE5=How love was true
TTITLE6=And the children laughing
TTITLE7=You wouldn´t know
TTITLE8=I want hme
TTITLE9=I was lover leader of men
TTITLE10=Follow the wind
TTITLE11=Claustrophobia
TTITLE12=Theme from Jamie McPathers
TTITLE13=Every Day i have to cry
TTITLE14=Take hold of that star
TTITLE15=Could it be i´m in love
TTITLE16=To be or not to be
TTITLE17=Three kisses of love
TTITLE18=Spicks and Specks
EXTD=
EXTT0=
EXTT1=
EXTT2=
EXTT3=
EXTT4=
EXTT5=
EXTT6=
EXTT7=
EXTT8=
EXTT9=
EXTT10=
EXTT11=
EXTT12=
EXTT13=
EXTT14=
EXTT15=
EXTT16=
EXTT17=
EXTT18=
PLAYORDER=
